<svg width="76" height="76" viewBox="0 0 76 76" fill="none" xmlns="http://www.w3.org/2000/svg">
<g filter="url(#filter0_d)">
<circle cx="37.9999" cy="28" r="28" fill="white"/>
<circle cx="37.9999" cy="28" r="27.5" stroke="#E1E1E1"/>
</g>
<path d="M22.9999 41.1296C30.5415 44.9568 47.5655 44.9568 52.9999 41.1296C52.9999 32.865 46.2901 27.9284 38.0276 27.9284C29.7651 27.9284 22.9999 32.8095 22.9999 41.1296Z" fill="#0B0B77"/>
<path d="M29.7097 20.6067C34.5895 21.4387 39.303 21.6051 45.5692 20.6622C47.4546 15.8366 44.7374 11.3992 41.4657 11.5656C40.9666 10.7891 41.3548 11.0664 40.5784 10.0125C31.7614 9.67971 28.4342 16.0584 29.7097 20.6067Z" fill="#1111B7"/>
<path d="M37.9167 33.8079C40.0793 33.8079 41.7984 32.0884 41.7984 29.9252V26.3753C41.7984 24.2676 40.0793 22.4926 37.9167 22.4926C35.8095 22.4926 34.035 24.2121 34.035 26.3753V29.9252C34.035 32.0884 35.754 33.8079 37.9167 33.8079Z" fill="#B8B8F4"/>
<path d="M37.6949 30.3135H38.1939C40.3012 30.3135 42.0756 28.594 42.0756 26.4308C42.0756 24.323 40.3566 22.5481 38.1939 22.5481H37.6949C35.5877 22.5481 33.8132 24.2676 33.8132 26.4308C33.8132 28.5385 35.5877 30.3135 37.6949 30.3135Z" fill="#8080DD"/>
<path d="M30.0424 23.491H45.3474C46.1792 23.491 46.8446 22.8254 46.8446 21.9934C46.8446 21.1614 46.1792 20.4958 45.3474 20.4958H30.0424C29.2106 20.4958 28.5452 21.1614 28.5452 21.9934C28.5452 22.8254 29.2106 23.491 30.0424 23.491Z" fill="#B8B8F4"/>
<path d="M45.68 19.9966C45.68 24.3785 42.1311 28.6495 37.7503 28.6495C33.3695 28.6495 29.7651 24.3785 29.7651 19.9966C29.7651 15.6147 33.3141 12.0093 37.6948 12.0093C42.0756 12.0093 45.68 15.5592 45.68 19.9966Z" fill="#B8B8F4"/>
<path d="M29.7652 20.4958L30.5415 21.5497V18.6099L41.1884 14.0616L45.1256 18.8872L45.0147 21.3278L45.6247 20.6622C45.6247 20.6622 47.621 11.6765 37.9722 11.621C28.9888 11.621 29.7652 20.4958 29.7652 20.4958Z" fill="#1111B7"/>
<path d="M40.4121 22.3817C40.9327 22.3817 41.3548 21.9595 41.3548 21.4387C41.3548 20.918 40.9327 20.4958 40.4121 20.4958C39.8914 20.4958 39.4694 20.918 39.4694 21.4387C39.4694 21.9595 39.8914 22.3817 40.4121 22.3817Z" fill="#02021E"/>
<path d="M35.0332 22.3817C35.5538 22.3817 35.9759 21.9595 35.9759 21.4387C35.9759 20.918 35.5538 20.4958 35.0332 20.4958C34.5125 20.4958 34.0905 20.918 34.0905 21.4387C34.0905 21.9595 34.5125 22.3817 35.0332 22.3817Z" fill="#02021E"/>
<defs>
<filter id="filter0_d" x="-0.00012207" y="0" width="76" height="76" filterUnits="userSpaceOnUse" color-interpolation-filters="sRGB">
<feFlood flood-opacity="0" result="BackgroundImageFix"/>
<feColorMatrix in="SourceAlpha" type="matrix" values="0 0 0 0 0 0 0 0 0 0 0 0 0 0 0 0 0 0 127 0"/>
<feOffset dy="10"/>
<feGaussianBlur stdDeviation="5"/>
<feColorMatrix type="matrix" values="0 0 0 0 0 0 0 0 0 0 0 0 0 0 0 0 0 0 0.1 0"/>
<feBlend mode="normal" in2="BackgroundImageFix" result="effect1_dropShadow"/>
<feBlend mode="normal" in="SourceGraphic" in2="effect1_dropShadow" result="shape"/>
</filter>
</defs>
</svg>
