<svg width="84" height="84" viewBox="0 0 84 84" fill="none" xmlns="http://www.w3.org/2000/svg">
<path d="M3 0L6.00002 3H0L3 0Z" fill="#06038D"/>
<path d="M84 81L81 84L81 78L84 81Z" fill="#06038D"/>
<path d="M30 0H3L84 81V55L30 0Z" fill="#00A1E0"/>
<path d="M35.738 13.6231L37.7575 15.6426C38.0573 15.9424 38.3062 16.2535 38.5042 16.576C38.7135 16.8984 38.8436 17.2265 38.8945 17.5603C38.9567 17.894 38.9284 18.2334 38.8096 18.5785C38.6965 18.9179 38.4731 19.2545 38.1393 19.5883C37.8169 19.9107 37.4775 20.1313 37.1211 20.2501C36.7703 20.3746 36.4196 20.4142 36.0689 20.3689C35.7182 20.3236 35.3759 20.2077 35.0422 20.021C34.7084 19.8343 34.3945 19.5939 34.1003 19.2998L33.3282 18.5276L31.4529 20.4028L30.2056 19.1555L35.738 13.6231ZM35.0167 18.2306C35.6955 18.9094 36.3291 18.9547 36.9174 18.3664C37.2059 18.0779 37.3219 17.7865 37.2653 17.4924C37.2144 17.2039 37.0221 16.8928 36.6883 16.559L35.9925 15.8632L34.3209 17.5348L35.0167 18.2306ZM37.4982 26.6518C37.1249 26.2784 36.8477 25.8711 36.6666 25.4299C36.4969 24.9887 36.4262 24.5333 36.4545 24.0638C36.4828 23.5943 36.6129 23.1191 36.8448 22.6382C37.0824 22.1631 37.4275 21.6992 37.88 21.2467C38.3326 20.7941 38.7936 20.4519 39.2631 20.2199C39.744 19.988 40.2135 19.8636 40.6717 19.8466C41.1356 19.824 41.5825 19.9032 42.0124 20.0842C42.4536 20.2652 42.8609 20.5424 43.2343 20.9157C43.6076 21.2891 43.882 21.6936 44.0573 22.1291C44.244 22.5647 44.326 23.0144 44.3034 23.4783C44.2808 23.9422 44.1507 24.4117 43.9131 24.8868C43.6868 25.362 43.3502 25.8231 42.9033 26.2699C42.4508 26.7225 41.9841 27.0647 41.5033 27.2967C41.0281 27.5343 40.5557 27.6672 40.0862 27.6955C39.6167 27.7238 39.1585 27.6502 38.7116 27.4749C38.276 27.2995 37.8716 27.0251 37.4982 26.6518ZM38.5758 25.5742C38.9548 25.9532 39.4159 26.0918 39.9589 25.9899C40.5077 25.8825 41.062 25.5487 41.6221 24.9887C42.1764 24.4343 42.4989 23.8912 42.5894 23.3595C42.6799 22.8278 42.5356 22.3724 42.1566 21.9934C41.7776 21.6144 41.3222 21.4701 40.7905 21.5606C40.2588 21.6511 39.7157 21.9736 39.1613 22.5279C38.6013 23.088 38.2675 23.6423 38.1601 24.1911C38.0582 24.7341 38.1968 25.1951 38.5758 25.5742ZM46.6843 24.5694L48.7038 26.5889C49.0036 26.8888 49.2525 27.1999 49.4505 27.5223C49.6598 27.8448 49.7899 28.1729 49.8408 28.5066C49.9031 28.8404 49.8748 29.1798 49.756 29.5248C49.6429 29.8643 49.4194 30.2008 49.0857 30.5346C48.7632 30.857 48.4238 31.0777 48.0674 31.1964C47.7167 31.3209 47.366 31.3605 47.0152 31.3152C46.6645 31.27 46.3223 31.154 45.9885 30.9673C45.6548 30.7807 45.3408 30.5403 45.0467 30.2461L44.2745 29.4739L42.3993 31.3492L41.1519 30.1018L46.6843 24.5694ZM45.9631 29.177C46.6419 29.8558 47.2755 29.901 47.8638 29.3127C48.1523 29.0242 48.2682 28.7329 48.2117 28.4387C48.1608 28.1502 47.9684 27.8391 47.6347 27.5054L46.9389 26.8096L45.2673 28.4812L45.9631 29.177ZM51.7962 29.6814L53.0521 30.9372L49.9549 34.0343C49.4119 34.5774 49.1149 35.0384 49.064 35.4174C49.0131 35.7964 49.1432 36.1415 49.4543 36.4526C49.7654 36.7637 50.1133 36.8967 50.498 36.8514C50.8827 36.8062 51.3465 36.512 51.8896 35.969L54.9867 32.8718L56.1916 34.0767L53.2218 37.0466C52.294 37.9743 51.4314 38.4636 50.6338 38.5145C49.8418 38.5711 49.0894 38.243 48.3767 37.5302C47.6582 36.8118 47.3217 36.051 47.3669 35.2477C47.4122 34.4444 47.8987 33.5789 48.8264 32.6512L51.7962 29.6814ZM57.4732 35.3583L58.7206 36.6057L54.2403 41.0859L56.4295 43.2751L55.3774 44.3273L51.9408 40.8907L57.4732 35.3583ZM60.9159 45.2837L61.2977 44.6473C61.4957 44.291 61.7135 43.9204 61.9511 43.5358C62.1887 43.1511 62.4149 42.7778 62.6299 42.4157L62.5959 42.3818C62.2339 42.608 61.8606 42.84 61.4759 43.0776C61.1025 43.3152 60.7377 43.5329 60.3813 43.7309L59.7364 44.1043L60.9159 45.2837ZM60.1946 46.5141L58.506 44.8255L56.8514 45.8013L55.5786 44.5285L62.842 40.7271L64.3439 42.229L60.5425 49.4924L59.2188 48.1687L60.1946 46.5141ZM65.3812 48.3575L66.0261 49.0023C66.3542 49.3304 66.6709 49.5115 66.9764 49.5454C67.2932 49.5793 67.5873 49.4606 67.8589 49.189C68.1304 48.9175 68.2322 48.6403 68.1643 48.3575C68.1021 48.0803 67.907 47.7776 67.5789 47.4495L66.934 46.8047L65.3812 48.3575ZM64.1423 53.0923L65.0757 50.0376L64.3884 49.3502L62.3944 51.3443L61.147 50.0969L66.6794 44.5645L68.6735 46.5586C68.9676 46.8527 69.2137 47.1554 69.4117 47.4665C69.6153 47.7833 69.7454 48.1057 69.802 48.4338C69.8642 48.7563 69.8416 49.0844 69.7341 49.4181C69.6266 49.7519 69.4089 50.0828 69.0808 50.4109C68.6735 50.8182 68.2464 51.0643 67.7995 51.1491C67.3639 51.234 66.9311 51.1915 66.5012 51.0218L65.5424 54.4923L64.1423 53.0923Z" fill="white"/>
</svg>
